<svg width="209" height="104" viewBox="0 0 209 104" fill="none" xmlns="http://www.w3.org/2000/svg">
<path d="M22.2526 62.3591L20.0078 60.1515C19.1306 59.1305 18.4106 58.1655 17.848 57.2564C17.2854 56.3474 16.8253 55.2002 16.4676 53.8147C16.0993 52.9571 15.8305 52.1437 15.6612 51.3746C15.4918 50.6055 15.3459 49.7206 15.2234 48.7201C15.1334 47.678 15.014 46.395 14.8651 44.8711C14.7297 43.4584 14.8115 42.2825 15.1102 41.3432C15.4044 40.3669 15.6075 39.7214 15.7195 39.4068C16.416 38.6446 17.0301 38.4377 17.5617 38.7864C18.1304 39.1305 18.5849 39.7707 18.9252 40.707C19.3025 41.6387 19.5384 42.6441 19.6329 43.7233C20.2295 47.6748 20.8378 50.6469 21.4578 52.6396C22.1149 54.6279 22.7694 55.8266 23.4213 56.2357C23.8796 56.2924 24.2641 56.2078 24.575 55.9817C24.8813 55.7185 25.2575 55.2587 25.7037 54.6023C26.1825 53.9043 26.8423 52.996 27.6833 51.8776C28.5894 50.6759 29.4886 49.4187 30.381 48.1058C31.2689 46.756 32.1081 45.4685 32.8984 44.2434C33.7258 43.0137 34.4601 41.9459 35.1015 41.0399C35.7799 40.1294 36.3255 39.5173 36.7385 39.2034C36.8595 38.9629 37.0962 38.7459 37.4486 38.5523C37.7965 38.3217 38.1327 38.1489 38.4571 38.0339C38.8141 37.8774 38.9925 37.7991 38.9925 37.7991C39.2981 37.837 39.4943 38.0574 39.5813 38.4605C39.6637 38.8265 39.8573 39.179 40.162 39.5178C40.2543 39.6569 40.4483 39.8589 40.7439 40.1236C41.0396 40.3883 41.1803 40.6155 41.1659 40.8053C41.1795 40.9165 41.0445 41.1963 40.7609 41.6448C40.4728 42.0562 40.1661 42.4698 39.8409 42.8858C39.5157 43.3017 39.2718 43.6136 39.1092 43.8216C38.6773 44.2882 38.0061 45.1038 37.0955 46.2684C36.2175 47.3914 35.3137 48.6116 34.3842 49.9289C33.4502 51.2092 32.6693 52.358 32.0416 53.3751C30.6424 55.4646 29.3783 57.2743 28.2491 58.8041C27.157 60.3295 26.4787 61.24 26.214 61.5357C26.186 61.6143 25.9519 61.6994 25.5118 61.7909C25.0671 61.8453 24.7702 62.0321 24.6212 62.3512L22.2526 62.3591ZM21.4193 81.3611C21.2665 81.3422 20.9311 81.214 20.4131 80.9765C19.9321 80.7345 19.4905 80.5065 19.0882 80.2924C18.7925 80.0277 18.5872 79.7332 18.4722 79.4087C18.3944 79.0798 18.3955 78.6283 18.4757 78.0543C18.5559 77.4803 18.6644 76.6771 18.8014 75.6449C18.7341 74.788 18.7738 73.73 18.9206 72.4709C19.1044 71.2072 19.3688 70.1405 19.7136 69.2708C19.6637 68.8632 19.6883 68.296 19.7874 67.5692C19.8865 66.8425 20.0204 66.0926 20.1891 65.3197C20.3903 64.5053 20.568 63.8065 20.7223 63.2234L21.369 60.2105L23.3611 58.0485L26.4965 59.6957C26.3755 59.9362 26.2775 60.2115 26.2026 60.5215C26.1278 60.8316 26.0408 61.35 25.9417 62.0768C25.8426 62.8035 25.6985 63.9307 25.5094 65.4583C25.3354 66.4952 25.1334 67.6106 24.9035 68.8047C24.7106 69.9943 24.5271 71.1075 24.3532 72.1444C24.1792 73.1812 24.0196 74.0282 23.8744 74.6854C23.6338 76.4073 23.3872 77.7728 23.1346 78.7816C22.919 79.7859 22.6649 80.4752 22.3722 80.8495C22.1211 81.2564 21.8035 81.4269 21.4193 81.3611ZM47.41 72.7634C46.3754 73.5295 45.235 74.0452 43.9887 74.3106C42.7749 74.5344 41.6057 74.5083 40.4812 74.2322C39.3521 73.9191 38.4019 73.3772 37.6305 72.6065C37.201 72.1701 36.7559 71.4536 36.2954 70.4568C35.8304 69.423 35.5979 67.9846 35.5979 66.1416C35.6116 64.4098 35.9195 62.6231 36.5215 60.7817C37.1606 58.9357 38.01 57.2708 39.0695 55.7871C40.1291 54.3033 41.352 53.2321 42.7383 52.5735C43.2344 52.3247 43.7373 52.1315 44.247 51.9939C44.7892 51.8147 45.5096 51.7077 46.408 51.6729C47.2739 51.6798 48.0608 51.8091 48.7687 52.061C49.472 52.2758 49.9945 52.5503 50.3363 52.8846C51.0018 53.4049 51.4612 53.9317 51.7146 54.4648C51.9679 54.998 52.1078 55.5263 52.1342 56.0496C52.0941 57.2581 51.7133 58.6023 50.9918 60.0823C50.3073 61.5577 49.2277 62.7242 47.753 63.5817C47.1547 63.9183 46.434 64.1757 45.5908 64.3542C44.7476 64.5326 43.5667 64.5643 42.0481 64.4493C41.1361 64.3729 40.5545 64.5381 40.3034 64.945C40.0894 65.3473 40.0667 66.0835 40.2353 67.1536C40.391 67.8116 40.6118 68.3863 40.8977 68.8779C41.216 69.3279 41.7201 69.6047 42.4098 69.7084C43.2802 69.7522 43.8939 69.6959 44.2509 69.5394C44.6033 69.3458 45.0416 69.0853 45.5657 68.7579C45.8394 68.5363 46.0924 68.2984 46.3246 68.0444C46.5938 67.7857 46.8445 67.5294 47.0767 67.2753C47.346 67.0166 47.5664 66.8204 47.7381 66.6865C47.9052 66.5156 48.0792 66.4003 48.2599 66.3406C48.4407 66.2808 48.6237 66.2396 48.809 66.217C49.2211 66.2041 49.6374 66.3788 50.0579 66.7411C50.4784 67.1033 50.7669 67.463 50.9234 67.8199C50.9597 68.1164 50.8266 68.5652 50.524 69.1664C50.217 69.7306 49.7848 70.3477 49.2274 71.0177C48.7025 71.6461 48.0967 72.228 47.41 72.7634ZM45.1701 60.4564C45.4159 60.3135 45.7547 60.0087 46.1865 59.5421C46.6554 59.071 47.0665 58.5882 47.4197 58.0936C47.7683 57.5619 47.9268 57.1664 47.895 56.907C47.8451 56.4994 47.5241 56.1814 46.9319 55.953C46.3769 55.72 45.6845 55.7484 44.8549 56.038C44.5675 56.1484 44.2404 56.3953 43.8736 56.7787C43.5068 57.1621 43.1468 57.6011 42.7936 58.0957C42.4359 58.5532 42.1338 59.0039 41.8872 59.4478C41.6361 59.8547 41.4686 60.1761 41.3846 60.412C41.5555 60.5792 41.8701 60.6911 42.3284 60.7478C42.7867 60.8046 43.2753 60.8012 43.7941 60.7377C44.3499 60.6696 44.8086 60.5759 45.1701 60.4564ZM58.3696 72.8887C57.0461 72.5242 56.054 72.1002 55.393 71.617C54.7646 71.0921 54.4787 70.6005 54.5355 70.1422C54.5824 69.9108 54.6871 69.6911 54.8497 69.4832C55.0123 69.2752 55.4109 69.1512 56.0454 69.1111C56.7124 69.0295 57.7519 69.0715 59.1638 69.2372C59.5714 69.1873 59.9768 69.1189 60.3799 69.0319C60.7829 68.9449 61.1467 68.844 61.4711 68.7291C61.8326 68.6096 62.1177 68.4807 62.3265 68.3423C62.5027 68.2455 62.5469 68.146 62.4592 68.0439C62.367 67.9048 62.2191 67.7724 62.0157 67.6469C61.8448 67.4797 61.6644 67.389 61.4746 67.3746C61.2802 67.3232 61.1089 67.3065 60.9607 67.3247C60.8639 67.1485 60.6745 66.9836 60.3924 66.8301C60.1474 66.672 59.8445 66.5022 59.4838 66.3207C58.5869 65.7535 57.7732 65.2513 57.0426 64.8141C56.3121 64.377 56.0051 64.0196 56.1216 63.7421C56.1034 63.5939 56.0944 63.5198 56.0944 63.5198C56.0898 63.4827 56.0875 63.4642 56.0875 63.4642C55.8281 63.4959 55.5442 63.1734 55.2357 62.4965C54.9226 61.7826 54.7298 61.1292 54.6572 60.5363C54.5665 59.7951 54.624 59.0359 54.8297 58.2584C55.0725 57.4765 55.3939 56.7225 55.794 55.9965C56.2312 55.266 56.6774 54.6096 57.1327 54.0273C57.7551 53.2741 58.4168 52.5349 59.1179 51.8096C59.8515 51.0428 60.6498 50.3433 61.5127 49.7111C62.4127 49.0744 63.4189 48.5375 64.5313 48.1004C65.0365 47.9257 65.6226 47.7976 66.2897 47.7159C66.9567 47.6343 67.4498 47.6679 67.7689 47.8169C68.0427 47.5953 68.42 47.6056 68.901 47.8476C69.3774 48.0525 69.8675 48.3687 70.3711 48.796C70.8748 49.2233 71.2673 49.6642 71.5486 50.1187C71.603 50.5634 71.6525 51.1215 71.6971 51.7931C71.7742 52.423 71.8052 52.9834 71.7901 53.4742C71.7749 53.9651 71.6377 54.2263 71.3783 54.2581C71.3783 54.2581 71.3249 54.2834 71.2183 54.3341C71.1442 54.3432 71.1185 54.4403 71.1412 54.6256C71.1865 54.9962 70.9608 55.4564 70.4639 56.0061C69.8188 56.5741 69.1994 57.0448 68.6057 57.4184C68.012 57.7919 67.5326 57.8694 67.1673 57.6509C66.9268 57.5299 66.7049 57.4066 66.5014 57.281C66.298 57.1555 66.1086 56.9906 65.9331 56.7864C65.9331 56.7864 65.8685 56.7191 65.7391 56.5845C65.6424 56.4083 65.5849 56.2461 65.5667 56.0978C65.5486 55.9496 65.5883 55.8131 65.6859 55.6883C65.7789 55.5265 65.8254 55.4456 65.8254 55.4456C66.2852 54.9003 66.6199 54.408 66.8294 53.9686C67.0759 53.5247 67.2367 53.1477 67.3115 52.8377C67.3819 52.4906 67.4057 52.2244 67.383 52.0391C67.3558 51.8167 67.2844 51.6938 67.1687 51.6704C67.0855 51.6054 66.8956 51.591 66.5992 51.6273C66.4139 51.65 66.0244 51.8481 65.4308 52.2216C64.8741 52.5907 64.2895 53.0384 63.6769 53.5647C63.0598 54.054 62.5864 54.488 62.2567 54.8669C62.1402 55.1445 62.0494 55.3248 61.9844 55.408C61.9564 55.4867 61.8683 55.535 61.7201 55.5532C61.7019 55.405 61.6115 55.4348 61.4489 55.6428C61.2863 55.8508 61.0957 56.1374 60.8772 56.5026C60.6586 56.8679 60.4423 57.2517 60.2283 57.654C60.0142 58.0563 59.8467 58.3777 59.7257 58.6182C59.7295 58.9563 59.6754 59.2826 59.5634 59.5972C59.484 59.8702 59.481 60.1527 59.5543 60.4446C59.6368 60.8106 59.8651 61.14 60.2395 61.4327C60.6138 61.7253 61.1477 62.0925 61.8412 62.5342C63.2561 63.3389 64.3126 63.9806 65.0106 64.4594C65.7456 64.9336 66.2633 65.3215 66.5635 65.6233C66.8637 65.9251 67.0713 66.2382 67.1862 66.5626C67.9568 67.6342 68.1534 68.6257 67.776 69.537C67.3941 70.4112 66.7301 71.1319 65.784 71.699C65.4361 71.9297 64.808 72.1758 63.8997 72.4375C62.996 72.7361 62.0231 72.9305 60.9809 73.0204C59.9804 73.1429 59.1099 73.099 58.3696 72.8887ZM72.8996 75.6235C72.492 75.6734 72.1286 75.6239 71.8095 75.4749C71.5274 75.3214 71.2964 75.124 71.1164 74.8827C71.0847 74.6233 71.1316 74.3919 71.2571 74.1885C71.3827 73.985 71.5593 73.7378 71.7869 73.4466C72.1492 73.0261 72.4816 72.5153 72.7841 71.9141C73.0911 71.3499 73.3589 70.7718 73.5873 70.1796C73.8528 69.583 74.0577 69.1065 74.2022 68.7503C74.3005 68.3246 74.3898 67.8247 74.4699 67.2507C74.5501 66.6767 74.6235 66.0471 74.6901 65.362C74.6538 65.0655 74.622 64.8061 74.5948 64.5838C74.6001 64.3198 74.6678 64.1047 74.7979 63.9383C75.0626 63.6426 75.3874 63.3772 75.7724 63.142C76.1898 62.8652 76.6251 62.8872 77.078 63.2078C77.5636 63.4869 78.0037 64.3169 78.3984 65.6979C78.6464 66.495 78.7371 67.2361 78.6705 67.9213C78.604 68.6064 78.3888 69.4602 78.025 70.4827C77.9826 70.7512 77.7569 71.2113 77.3477 71.8632C76.9756 72.5106 76.5782 73.1046 76.1554 73.6453C75.7742 74.2185 75.5281 74.5119 75.4169 74.5255C75.2687 74.5437 75.1435 74.5966 75.0414 74.6843C74.9438 74.8091 74.8115 74.957 74.6443 75.1279C74.5143 75.2942 74.301 75.3956 74.0045 75.4319C73.7126 75.5052 73.3443 75.5691 72.8996 75.6235ZM106.472 70.3855C105.889 70.2312 105.202 69.9956 104.411 69.6787C103.624 69.3989 102.859 68.9848 102.115 68.4365C101.371 67.8882 100.759 67.192 100.28 66.348C99.7774 65.3187 99.3888 64.2944 99.1135 63.2749C98.8753 62.251 98.6909 61.0512 98.5601 59.6755C98.3242 57.7486 98.2498 56.0651 98.3368 54.6252C98.4563 53.1437 98.7218 51.6256 99.1333 50.0707C99.1938 49.9505 99.2849 49.6196 99.4067 49.0781C99.561 48.4951 99.7293 47.8727 99.9116 47.211C100.131 46.5447 100.294 46.0357 100.402 45.6841C100.621 45.0178 100.964 44.1296 101.43 43.0195C101.928 41.8677 102.468 40.7485 103.05 39.6617C103.929 37.9368 104.678 36.5286 105.297 35.4374C105.911 34.3091 106.509 33.352 107.089 32.5663C107.707 31.776 108.383 30.9975 109.117 30.2307C109.887 29.4593 110.85 28.5704 112.006 27.5639C112.749 26.8712 113.741 26.3736 114.983 26.0711C116.262 25.7641 117.546 25.8137 118.837 26.2199C120.124 26.589 121.154 27.4784 121.928 28.8881C122.431 29.6164 122.737 30.5757 122.845 31.766C122.948 32.9193 122.878 34.1879 122.634 35.5719C122.385 36.9188 122.016 38.2051 121.526 39.431C121.037 40.6569 120.446 41.6695 119.754 42.4688C119.327 42.9725 118.688 43.126 117.836 42.9293C117.022 42.7281 116.326 42.4184 115.748 42.0002C115.337 41.411 115.107 41.0632 115.056 40.9565C115.042 40.8453 115.107 40.7622 115.251 40.707C115.442 40.4203 115.684 39.9394 115.977 39.2641C116.27 38.5887 116.559 37.8763 116.844 37.1269C117.124 36.3404 117.31 35.7157 117.404 35.2529C117.51 33.6602 117.589 32.6162 117.641 32.1209C117.689 31.5885 117.526 31.1759 117.151 30.8833C116.985 30.7532 116.756 30.7248 116.464 30.7982C116.209 30.867 115.787 31.1067 115.198 31.5173C114.391 31.9922 113.465 32.8766 112.42 34.1705C111.407 35.4229 110.422 36.8975 109.463 38.5945C108.222 40.74 107.193 42.6336 106.379 44.2754C105.564 45.9172 104.995 47.5666 104.671 49.2235C104.615 49.3808 104.52 49.6746 104.384 50.1049C104.286 50.5307 104.237 50.7436 104.237 50.7436C104.292 50.8873 104.282 51.2646 104.206 51.8757C104.126 52.4497 104.018 52.9518 103.883 53.3822C103.684 55.1367 103.645 56.8152 103.766 58.4177C103.882 59.9831 104.143 61.3429 104.547 62.497C104.984 63.6094 105.515 64.4096 106.139 64.8974C106.661 65.1719 107.286 65.2082 108.014 65.0063C108.741 64.8044 109.562 64.4407 110.475 63.9152C111.389 63.3896 112.372 62.8179 113.425 62.2001C114.269 61.7206 115.034 61.2132 115.721 60.6778C116.408 60.1424 116.916 59.6853 117.246 59.3064C117.515 59.0478 117.858 58.7801 118.276 58.5033C118.726 58.1849 119.117 58.0053 119.451 57.9645C119.947 57.7157 120.354 57.8163 120.673 58.2663C120.991 58.7163 121.196 59.3118 121.286 60.053C121.35 60.5718 121.056 61.2471 120.406 62.079C119.756 62.9108 119.017 63.6406 118.192 64.2682C117.931 64.601 117.558 64.9288 117.071 65.2517C116.616 65.533 116.141 65.7981 115.645 66.0469C114.939 66.735 114.046 67.4273 112.965 68.1238C111.885 68.8203 110.769 69.3893 109.62 69.8309C108.507 70.268 107.458 70.4529 106.472 70.3855ZM127.696 61.92C127.441 61.9888 127.134 61.9324 126.773 61.7509C126.445 61.5278 126.139 61.3395 125.857 61.186C125.432 60.7867 125.125 60.4293 124.936 60.1139C124.747 59.7986 124.628 59.4371 124.578 59.0295C124.528 58.6218 124.506 58.1356 124.512 57.5706C124.625 56.9551 124.75 56.1311 124.887 55.0988C125.023 54.0665 125.207 52.9533 125.437 51.7592C125.457 51.3055 125.523 50.7708 125.635 50.1552C125.781 49.498 125.93 48.8779 126.085 48.2948C126.234 47.6747 126.347 47.2096 126.422 46.8996C126.568 45.9414 126.718 45.0203 126.873 44.1362C127.065 43.2476 127.297 42.2225 127.569 41.0609C127.84 39.8993 128.168 38.4299 128.552 36.6527C129.096 34.3295 129.503 32.5871 129.774 31.4255C130.046 30.2639 130.245 29.4309 130.371 28.9265C130.497 28.4221 130.58 28.0171 130.617 27.7116C130.581 27.4151 130.751 27.1123 131.127 26.803C131.535 26.4521 131.906 26.2562 132.24 26.2154C132.763 26.189 133.302 26.4427 133.856 26.9766C134.406 27.4735 134.823 28.1182 135.108 28.9108C135.389 29.6663 135.352 30.4419 134.998 31.2374C134.569 32.6441 134.159 34.2174 133.771 35.9576C133.414 37.6561 133.058 39.3546 132.702 41.0532C132.346 42.7517 131.973 44.3206 131.585 45.7597C131.571 45.9495 131.48 46.2804 131.312 46.7523C131.181 47.2196 131.06 47.6106 130.948 47.9252C130.836 48.2398 130.722 48.5359 130.605 48.8134C130.526 49.0864 130.486 49.2229 130.486 49.2229C130.476 49.4498 130.441 49.7739 130.379 50.1951C130.318 50.6163 130.25 50.982 130.175 51.292C130.161 51.4819 130.135 51.7295 130.097 52.0351C130.059 52.3406 130.04 52.6438 130.039 52.9448C130.197 52.6998 130.425 52.4087 130.722 52.0714C131.015 51.697 131.391 51.2373 131.851 50.692C132.38 50.1006 132.844 49.5924 133.244 49.1674C133.643 48.7424 134.047 48.3545 134.455 48.0036C134.827 47.6573 135.163 47.334 135.465 47.0338C135.804 46.729 135.973 46.5766 135.973 46.5766C136.034 46.4564 136.092 46.3176 136.148 46.1603C136.241 45.9985 136.341 45.8922 136.447 45.8416C136.512 45.7584 136.631 45.6498 136.802 45.516C136.97 45.3451 137.137 45.1742 137.304 45.0033C137.61 44.7401 137.94 44.5117 138.292 44.3181C138.644 44.1246 139.02 43.9658 139.418 43.8417C139.817 43.7177 140.202 43.633 140.572 43.5877C141.017 43.5332 141.503 43.6618 142.03 43.9734C142.552 44.248 143.056 44.6753 143.541 45.2553C143.97 45.6917 144.263 46.2389 144.419 46.8968C144.607 47.5132 144.73 48.3632 144.787 49.4469C144.824 49.7434 144.799 50.3106 144.713 51.1485C144.665 51.9819 144.629 52.6069 144.604 53.0236L144.336 54.9748L144.78 54.9203C145.17 54.7222 145.557 54.6561 145.941 54.7219C146.362 54.7831 146.573 54.8138 146.573 54.8138C146.771 54.9023 146.954 55.0115 147.12 55.1416C147.324 55.2672 147.504 55.3579 147.662 55.4139C147.92 55.6831 147.935 56.1138 147.707 56.706C147.478 57.2981 147.193 57.728 146.849 57.9957C146.032 58.6975 145.281 59.1656 144.595 59.4C143.946 59.6299 143.226 59.5864 142.435 59.2695C141.672 58.8739 141.12 58.3585 140.779 57.7233C140.475 57.0835 140.271 56.1869 140.168 55.0336C140.116 53.385 140.066 52.2063 140.017 51.4977C139.963 50.7521 139.733 50.4042 139.325 50.4541C138.88 50.5085 138.296 50.8057 137.573 51.3456C136.881 51.844 136.118 52.5204 135.282 53.375C134.442 54.1924 133.613 55.1026 132.795 56.1053C132.01 57.0665 131.32 58.0349 130.725 59.0104C130.348 59.6207 129.935 60.2355 129.484 60.8549C129.029 61.4372 128.433 61.7922 127.696 61.92ZM162.651 58.6566C161.617 59.4227 160.476 59.9384 159.23 60.2038C158.016 60.4276 156.847 60.4014 155.723 60.1254C154.593 59.8122 153.643 59.2703 152.872 58.4997C152.442 58.0633 151.997 57.3468 151.537 56.35C151.072 55.3162 150.839 53.8778 150.839 52.0348C150.853 50.3029 151.161 48.5163 151.763 46.6748C152.402 44.8288 153.251 43.164 154.311 41.6802C155.37 40.1965 156.593 39.1253 157.98 38.4667C158.476 38.2179 158.979 38.0247 159.488 37.887C160.031 37.7078 160.751 37.6008 161.649 37.5661C162.515 37.5729 163.302 37.7023 164.01 37.9541C164.713 38.1689 165.236 38.4435 165.578 38.7778C166.243 39.2981 166.703 39.8248 166.956 40.358C167.209 40.8912 167.349 41.4194 167.376 41.9428C167.335 43.1513 166.955 44.4955 166.233 45.9755C165.549 47.4509 164.469 48.6174 162.994 49.4749C162.396 49.8114 161.675 50.0689 160.832 50.2473C159.989 50.4258 158.808 50.4575 157.289 50.3425C156.377 50.2661 155.796 50.4313 155.545 50.8382C155.331 51.2405 155.308 51.9767 155.477 53.0468C155.632 53.7048 155.853 54.2795 156.139 54.7711C156.457 55.2211 156.961 55.4979 157.651 55.6015C158.522 55.6454 159.135 55.5891 159.492 55.4326C159.845 55.239 160.283 54.9785 160.807 54.651C161.081 54.4295 161.334 54.1916 161.566 53.9375C161.835 53.6789 162.086 53.4225 162.318 53.1684C162.587 52.9098 162.808 52.7136 162.979 52.5797C163.147 52.4088 163.321 52.2935 163.501 52.2338C163.682 52.174 163.865 52.1328 164.05 52.1101C164.462 52.0973 164.879 52.272 165.299 52.6343C165.72 52.9965 166.008 53.3561 166.165 53.7131C166.201 54.0095 166.068 54.4584 165.765 55.0596C165.458 55.6237 165.026 56.2408 164.469 56.9109C163.944 57.5393 163.338 58.1212 162.651 58.6566ZM160.411 46.3496C160.657 46.2067 160.996 45.9019 161.428 45.4353C161.897 44.9642 162.308 44.4813 162.661 43.9867C163.01 43.4551 163.168 43.0596 163.136 42.8002C163.086 42.3926 162.765 42.0746 162.173 41.8461C161.618 41.6132 160.926 41.6415 160.096 41.9311C159.809 42.0415 159.482 42.2885 159.115 42.6719C158.748 43.0553 158.388 43.4943 158.035 43.9888C157.677 44.4464 157.375 44.8971 157.129 45.341C156.877 45.7479 156.71 46.0693 156.626 46.3052C156.797 46.4723 157.111 46.5843 157.57 46.641C158.028 46.6978 158.517 46.6944 159.035 46.6309C159.591 46.5628 160.05 46.4691 160.411 46.3496ZM173.94 63.3115C173.463 63.4075 172.945 63.1701 172.386 62.5991C171.827 62.0281 171.317 61.2442 170.857 60.2474C170.433 59.2461 170.147 58.134 169.997 56.9112C169.663 55.41 169.566 53.5413 169.706 51.305C169.846 49.0688 170.144 46.437 170.601 43.4097C170.775 42.3729 171.051 41.0979 171.43 39.5846C171.809 38.0714 172.209 36.5744 172.629 35.0936C173.087 33.6084 173.498 32.3545 173.862 31.3321C174.221 30.2726 174.449 29.6804 174.547 29.5557C174.778 29.6026 174.869 29.4222 174.819 29.0146C174.81 28.9404 174.924 28.6444 175.162 28.1264C175.399 27.6083 175.614 27.0555 175.805 26.4679C176.2 25.7049 176.721 24.8889 177.367 24.02C178.045 23.1095 178.733 22.2731 179.429 21.5108C180.163 20.744 180.813 20.2131 181.378 19.9182C181.907 19.6278 182.449 19.4486 183.005 19.3805C183.709 19.2944 184.498 19.4422 185.373 19.8242C186.279 20.1645 187.072 20.6504 187.751 21.2819C188.463 21.8719 188.862 22.5188 188.948 23.2229C189.021 23.8158 188.961 24.4061 188.77 24.9937C188.727 25.5631 188.581 26.2203 188.334 26.9652C188.082 27.6731 187.826 28.3439 187.565 28.9776C187.337 29.5697 187.146 30.0069 186.992 30.2889C186.017 31.2357 185.222 31.6528 184.606 31.5401C183.991 31.4274 183.76 31.23 183.913 30.9479C183.895 30.7997 183.912 30.4779 183.964 29.9825C184.012 29.4501 184.039 29.052 184.044 28.788C184.035 28.7139 184.082 28.4825 184.185 28.0938C184.324 27.7005 184.372 27.3186 184.326 26.9481C184.497 25.5732 184.538 24.6842 184.451 24.2811C184.401 23.8735 184.21 23.6901 183.876 23.7309C183.686 23.7166 183.469 23.7808 183.223 23.9238C182.977 24.0667 182.773 24.2421 182.61 24.4501C182.48 24.6165 182.426 24.7923 182.449 24.9776C182.463 25.0887 182.472 25.1629 182.476 25.1999C182.361 25.1765 182.066 25.5323 181.591 26.2673C181.15 26.9608 180.652 27.8116 180.098 28.8196C179.54 29.7907 179.084 30.6739 178.73 31.4695C178.511 32.1358 178.266 32.8992 177.995 33.7598C177.757 34.5788 177.423 35.8421 176.992 37.5498L176.711 38.9382L177.614 38.9405C177.915 38.9413 178.283 38.8774 178.719 38.7489C179.187 38.5787 179.711 38.4018 180.29 38.218C181.527 37.8785 182.395 37.9039 182.894 38.2941C183.426 38.6428 183.858 39.0977 184.19 39.6588C184.706 40.4983 184.559 41.137 183.747 41.5748C182.931 41.9756 181.124 42.4225 178.326 42.9154C177.724 42.9139 177.203 42.9589 176.763 43.0504C176.355 43.1003 176.086 43.2084 175.956 43.3748C175.817 43.467 175.663 43.8996 175.495 44.6725C175.321 45.4083 175.148 46.2947 174.974 47.3315C174.832 48.3267 174.742 49.2781 174.703 50.1856C174.547 51.3706 174.513 52.6347 174.603 53.9778C174.687 55.2839 174.837 56.5068 175.052 57.6464C175.262 58.7491 175.477 59.5878 175.698 60.1625C176.029 61.0247 175.923 61.6958 175.38 62.176C174.842 62.6933 174.362 63.0718 173.94 63.3115ZM191.696 47.1463C190.681 47.4586 189.814 47.1322 189.094 46.1672C188.37 45.1651 188.177 43.2892 188.518 40.5395C188.686 40.0676 188.819 39.6187 188.917 39.193C189.011 38.7302 189.042 38.369 189.01 38.1096C189.1 37.6098 189.217 37.0312 189.362 36.3741C189.54 35.6753 189.724 35.0321 189.916 34.4445C190.103 33.8198 190.24 33.408 190.329 33.2092C190.477 33.191 190.609 33.0432 190.726 32.7656C190.879 32.4835 190.94 32.2128 190.908 31.9534C190.872 31.657 190.887 31.3166 190.953 30.9325C191.056 30.5438 191.172 30.2662 191.302 30.0998C191.279 29.9146 191.329 29.7017 191.45 29.4612C191.571 29.2207 191.622 29.0263 191.604 28.8781C191.586 28.7299 191.607 28.5957 191.667 28.4754C191.765 28.3506 191.805 28.2141 191.787 28.0659C192.047 27.4322 192.367 26.5092 192.745 25.2969C193.156 24.0431 193.541 22.7359 193.901 21.3754C194.298 20.0104 194.621 18.8049 194.869 17.759C195.117 16.7131 195.228 16.079 195.2 15.8567C195.238 15.5511 195.315 15.2596 195.432 14.9821C195.548 14.7045 195.759 14.5847 196.065 14.6225C196.199 14.4932 196.415 14.4104 196.711 14.3741C197.003 14.3007 197.223 14.255 197.372 14.2368C197.372 14.2368 197.547 14.2905 197.899 14.3979C198.251 14.5053 198.574 14.6914 198.87 14.9561C199.198 15.1792 199.408 15.5108 199.5 15.951C199.591 16.3911 199.664 16.8335 199.719 17.2782C199.768 17.9868 199.606 18.8153 199.233 19.7636C198.86 20.712 198.443 21.7597 197.982 22.907C197.697 23.6564 197.408 24.3688 197.115 25.0441C196.858 25.7149 196.739 26.1244 196.757 26.2726C196.776 26.4209 196.729 26.6523 196.617 26.9669C196.505 27.2815 196.383 27.6725 196.253 28.1398C196.076 28.5376 195.908 29.0095 195.749 29.5555C195.627 30.097 195.519 30.5991 195.426 31.062C195.327 31.4877 195.285 31.7562 195.298 31.8674C195.28 32.0201 195.242 32.1752 195.186 32.3325C195.167 32.4852 195.093 32.6448 194.963 32.8112C194.814 32.8293 194.735 32.9518 194.726 33.1787C194.748 33.364 194.76 33.4566 194.76 33.4566C194.778 33.6048 194.728 33.9682 194.611 34.5468C194.526 35.0837 194.344 35.7454 194.064 36.5319C193.6 38.5821 193.293 40.2182 193.142 41.4404C192.986 42.6254 192.921 43.6301 192.946 44.4544C192.981 45.3528 192.852 45.9892 192.56 46.3636C192.262 46.7008 191.975 46.9617 191.696 47.1463ZM189.805 56.1226C189.063 56.5143 188.43 56.7234 187.907 56.7498C187.388 56.8133 186.784 56.6428 186.095 56.2381C185.264 55.5877 184.913 54.8783 185.045 54.11C185.209 53.3 185.785 52.4773 186.774 51.6416C187.456 51.0692 187.964 50.7625 188.297 50.7217C188.663 50.6393 189.217 50.7032 189.957 50.9135C191.312 51.5374 191.975 52.3402 191.944 53.3219C191.91 54.2664 191.196 55.2 189.805 56.1226Z" fill="black"/>
<path d="M28.7561 101.01C28.7561 101.01 15.895 81.5612 96.2561 84.0099C176.617 86.4587 182.418 68.5179 184.256 69.01" stroke="black" stroke-width="4" stroke-linecap="round"/>
</svg>
